<svg width="33" height="31" viewBox="0 0 33 31" fill="none" xmlns="http://www.w3.org/2000/svg">
<path d="M31.6436 5.84881L23.8249 10.6662L16.3276 0.665776C16.2974 0.625526 16.2583 0.592855 16.2133 0.570352C16.1683 0.547849 16.1187 0.536133 16.0684 0.536133C16.0181 0.536133 15.9685 0.547849 15.9235 0.570352C15.8785 0.592855 15.8394 0.625526 15.8093 0.665776L8.31596 10.6662L0.493187 5.84881C0.264169 5.70819 -0.0331525 5.89703 0.00300817 6.16622L3.07265 29.4939C3.11685 29.8113 3.39006 30.0564 3.71551 30.0564H28.4293C28.7508 30.0564 29.028 29.8153 29.0682 29.4939L32.1378 6.16622C32.17 5.89703 31.8767 5.70819 31.6436 5.84881ZM26.5811 27.3082H5.55569L3.39408 10.8591L9.01104 14.3185L16.0704 4.9006L23.1298 14.3185L28.7468 10.8591L26.5811 27.3082ZM16.0704 15.1903C13.5753 15.1903 11.5463 17.2193 11.5463 19.7144C11.5463 22.2095 13.5753 24.2385 16.0704 24.2385C18.5655 24.2385 20.5945 22.2095 20.5945 19.7144C20.5945 17.2193 18.5655 15.1903 16.0704 15.1903ZM16.0704 21.6551C15.0017 21.6551 14.1338 20.7872 14.1338 19.7144C14.1338 18.6457 15.0017 17.7738 16.0704 17.7738C17.1392 17.7738 18.007 18.6417 18.007 19.7144C18.007 20.7832 17.1392 21.6551 16.0704 21.6551Z" fill="#000000"/>
</svg>
