<svg width="28" height="29" viewBox="0 0 28 29" fill="none" xmlns="http://www.w3.org/2000/svg">
<path d="M15.2046 0H12.7938C12.5796 0 12.4724 0.107143 12.4724 0.321429V12.9375H0.50014C0.285854 12.9375 0.178711 13.0446 0.178711 13.2589V15.6696C0.178711 15.8839 0.285854 15.9911 0.50014 15.9911H12.4724V28.6071C12.4724 28.8214 12.5796 28.9286 12.7938 28.9286H15.2046C15.4188 28.9286 15.526 28.8214 15.526 28.6071V15.9911H27.5001C27.7144 15.9911 27.8216 15.8839 27.8216 15.6696V13.2589C27.8216 13.0446 27.7144 12.9375 27.5001 12.9375H15.526V0.321429C15.526 0.107143 15.4188 0 15.2046 0Z" fill="black"/>
</svg>
