<svg width="27" height="28" viewBox="0 0 27 28" fill="none" xmlns="http://www.w3.org/2000/svg">
<path d="M13.5 0.0563965C6.04336 0.0563965 0 6.09976 0 13.5564V26.2126C0 26.6802 0.376172 27.0564 0.84375 27.0564H7.3125C8.55352 27.0564 9.5625 26.0474 9.5625 24.8064V17.4939C9.5625 16.2529 8.55352 15.2439 7.3125 15.2439H2.53125V13.5564C2.53125 7.49897 7.44258 2.58765 13.5 2.58765C19.5574 2.58765 24.4688 7.49897 24.4688 13.5564V15.2439H19.6875C18.4465 15.2439 17.4375 16.2529 17.4375 17.4939V24.8064C17.4375 26.0474 18.4465 27.0564 19.6875 27.0564H26.1562C26.6238 27.0564 27 26.6802 27 26.2126V13.5564C27 6.09976 20.9566 0.0563965 13.5 0.0563965ZM7.03125 17.7751V24.5251H2.53125V17.7751H7.03125ZM24.4688 24.5251H19.9688V17.7751H24.4688V24.5251Z" fill="#000000"/>
</svg>
