<svg width="26" height="33" viewBox="0 0 26 33" fill="none" xmlns="http://www.w3.org/2000/svg">
<path d="M24.6227 0.0563965H1.17251C0.523964 0.0563965 0 0.580361 0 1.2289V31.7141C0 32.3626 0.523964 32.8866 1.17251 32.8866H24.6227C25.2712 32.8866 25.7952 32.3626 25.7952 31.7141V1.2289C25.7952 0.580361 25.2712 0.0563965 24.6227 0.0563965ZM15.096 2.69454H18.6136V10.3855L16.9098 9.14333L15.096 10.4404V2.69454ZM2.63814 30.2485V2.69454H12.8976V13.5732C12.8976 13.6941 12.9342 13.815 13.0075 13.914C13.052 13.9769 13.1085 14.0303 13.1738 14.0712C13.239 14.1121 13.3118 14.1396 13.3878 14.1523C13.4637 14.1649 13.5415 14.1623 13.6165 14.1446C13.6914 14.127 13.7622 14.0947 13.8246 14.0495L16.8951 11.8548L19.8777 14.0312C19.9766 14.1045 20.0975 14.1448 20.2221 14.1448C20.5445 14.1448 20.8083 13.881 20.8083 13.5586V2.69454H23.1534V30.2485H2.63814Z" fill="#000000"/>
</svg>
