<svg width="30" height="25" viewBox="0 0 30 25" fill="none" xmlns="http://www.w3.org/2000/svg">
<path id="Vector" d="M28.1403 0.532562H1.33799C0.767793 0.532562 0.307129 0.993227 0.307129 1.56342V17.5417C0.307129 18.1119 0.767793 18.5726 1.33799 18.5726H13.5794V22.1806H8.03856C7.75508 22.1806 7.52313 22.4125 7.52313 22.696V24.2423C7.52313 24.384 7.6391 24.5 7.78085 24.5H21.6974C21.8392 24.5 21.9551 24.384 21.9551 24.2423V22.696C21.9551 22.4125 21.7232 22.1806 21.4397 22.1806H15.8989V18.5726H28.1403C28.7105 18.5726 29.1711 18.1119 29.1711 17.5417V1.56342C29.1711 0.993227 28.7105 0.532562 28.1403 0.532562ZM26.8517 16.2531H2.62656V2.85199H26.8517V16.2531Z" fill="black"/>
</svg>
