<svg width="36" height="34" viewBox="0 0 36 34" fill="none" xmlns="http://www.w3.org/2000/svg">
<mask id="path-1-inside-1_81_551" fill="white">
<path fill-rule="evenodd" clip-rule="evenodd" d="M20.0151 1.5564C18.8604 -0.443603 15.9736 -0.443604 14.8189 1.5564L13.2366 4.29709L10.3699 2.95654C8.27791 1.97828 5.91142 3.63149 6.11021 5.93232L6.55202 11.0461L1.82763 13.0527C-0.297978 13.9555 -0.649137 16.8208 1.19555 18.2103L3.98903 20.3143L2.24029 23.3432C1.08559 25.3432 2.52896 27.8432 4.83837 27.8432H8.00323L8.27564 30.9962C8.47443 33.297 11.0894 34.5199 12.9826 33.1973L17.1905 30.2577L21.2904 33.3457C23.1351 34.7352 25.7921 33.6066 26.0731 31.3144L26.4985 27.8432H29.9956C32.305 27.8432 33.7484 25.3432 32.5937 23.3432L31.0114 20.6025L33.6058 18.79C35.499 17.4675 35.2505 14.5914 33.1586 13.6132L28.5089 11.4389L29.1333 6.34393C29.4143 4.05168 27.1084 2.31491 24.9828 3.21774L21.7637 4.58504L20.0151 1.5564Z"/>
</mask>
<path d="M14.8189 1.5564L12.6539 0.306396V0.306396L14.8189 1.5564ZM20.0151 1.5564L22.1801 0.306397V0.306396L20.0151 1.5564ZM13.2366 4.29709L12.1776 6.56172L14.255 7.53317L15.4016 5.54709L13.2366 4.29709ZM10.3699 2.95654L11.4289 0.691921V0.691921L10.3699 2.95654ZM6.11021 5.93232L8.60093 5.71713L6.11021 5.93232ZM6.55202 11.0461L7.52936 13.3471L9.19887 12.638L9.04274 10.8309L6.55202 11.0461ZM1.82763 13.0527L0.850286 10.7517H0.850286L1.82763 13.0527ZM1.19555 18.2103L2.69963 16.2133L1.19555 18.2103ZM3.98903 20.3143L6.15409 21.5643L7.26025 19.6484L5.49312 18.3174L3.98903 20.3143ZM2.24029 23.3432L0.0752259 22.0932L2.24029 23.3432ZM8.00323 27.8432L10.494 27.628L10.2966 25.3432H8.00323V27.8432ZM8.27564 30.9962L10.7664 30.781L8.27564 30.9962ZM12.9826 33.1973L11.5509 31.1479H11.5509L12.9826 33.1973ZM17.1905 30.2577L18.6946 28.2607L17.2457 27.1695L15.7588 28.2082L17.1905 30.2577ZM21.2904 33.3457L19.7864 35.3427L21.2904 33.3457ZM26.0731 31.3144L28.5545 31.6185L26.0731 31.3144ZM26.4985 27.8432V25.3432H24.2862L24.017 27.5391L26.4985 27.8432ZM32.5937 23.3432L30.4286 24.5932L32.5937 23.3432ZM31.0114 20.6025L29.5796 18.5531L27.6996 19.8664L28.8463 21.8525L31.0114 20.6025ZM33.6058 18.79L35.0375 20.8395L33.6058 18.79ZM33.1586 13.6132L32.0996 15.8778L32.0996 15.8778L33.1586 13.6132ZM28.5089 11.4389L26.0275 11.1348L25.8068 12.9351L27.4499 13.7035L28.5089 11.4389ZM29.1333 6.34393L31.6148 6.64804V6.64804L29.1333 6.34393ZM24.9828 3.21774L25.9601 5.51879L24.9828 3.21774ZM21.7637 4.58504L19.5986 5.83504L20.7048 7.75097L22.741 6.88609L21.7637 4.58504ZM16.984 2.8064C17.1764 2.47306 17.6576 2.47306 17.85 2.8064L22.1801 0.306396C20.0632 -3.36027 14.7708 -3.36027 12.6539 0.306396L16.984 2.8064ZM15.4016 5.54709L16.984 2.8064L12.6539 0.306396L11.0715 3.04709L15.4016 5.54709ZM9.31087 5.22117L12.1776 6.56172L14.2956 2.03247L11.4289 0.691921L9.31087 5.22117ZM8.60093 5.71713C8.5678 5.33366 8.96221 5.05812 9.31087 5.22117L11.4289 0.691921C7.5936 -1.10156 3.25505 1.92932 3.61949 6.14751L8.60093 5.71713ZM9.04274 10.8309L8.60093 5.71713L3.61949 6.14751L4.0613 11.2612L9.04274 10.8309ZM2.80498 15.3537L7.52936 13.3471L5.57467 8.74502L0.850286 10.7517L2.80498 15.3537ZM2.69963 16.2133C2.39219 15.9818 2.45071 15.5042 2.80498 15.3537L0.850286 10.7517C-3.04667 12.4069 -3.69046 17.6599 -0.308541 20.2072L2.69963 16.2133ZM5.49312 18.3174L2.69963 16.2133L-0.308541 20.2072L2.48494 22.3112L5.49312 18.3174ZM4.40535 24.5932L6.15409 21.5643L1.82397 19.0643L0.0752259 22.0932L4.40535 24.5932ZM4.83837 25.3432C4.45347 25.3432 4.2129 24.9266 4.40535 24.5932L0.0752259 22.0932C-2.04172 25.7599 0.604464 30.3432 4.83837 30.3432V25.3432ZM8.00323 25.3432H4.83837V30.3432H8.00323V25.3432ZM10.7664 30.781L10.494 27.628L5.51251 28.0584L5.78492 31.2114L10.7664 30.781ZM11.5509 31.1479C11.2353 31.3683 10.7995 31.1645 10.7664 30.781L5.78492 31.2114C6.14936 35.4296 10.9435 37.6714 14.4143 35.2467L11.5509 31.1479ZM15.7588 28.2082L11.5509 31.1479L14.4143 35.2467L18.6222 32.3071L15.7588 28.2082ZM22.7945 31.3488L18.6946 28.2607L15.6864 32.2546L19.7864 35.3427L22.7945 31.3488ZM23.5916 31.0103C23.5448 31.3923 23.102 31.5804 22.7945 31.3488L19.7864 35.3427C23.1683 37.8899 28.0395 35.8209 28.5545 31.6185L23.5916 31.0103ZM24.017 27.5391L23.5916 31.0103L28.5545 31.6185L28.9799 28.1473L24.017 27.5391ZM29.9956 25.3432H26.4985V30.3432H29.9956V25.3432ZM30.4286 24.5932C30.6211 24.9266 30.3805 25.3432 29.9956 25.3432V30.3432C34.2295 30.3432 36.8757 25.7599 34.7588 22.0932L30.4286 24.5932ZM28.8463 21.8525L30.4286 24.5932L34.7588 22.0932L33.1764 19.3525L28.8463 21.8525ZM32.1741 16.7406L29.5796 18.5531L32.4431 22.6519L35.0375 20.8395L32.1741 16.7406ZM32.0996 15.8778C32.4482 16.0408 32.4896 16.5202 32.1741 16.7406L35.0375 20.8395C38.5084 18.4148 38.0528 13.142 34.2176 11.3485L32.0996 15.8778ZM27.4499 13.7035L32.0996 15.8778L34.2176 11.3485L29.5679 9.17425L27.4499 13.7035ZM26.6519 6.03982L26.0275 11.1348L30.9904 11.743L31.6148 6.64804L26.6519 6.03982ZM25.9601 5.51879C26.3144 5.36831 26.6987 5.65778 26.6519 6.03982L31.6148 6.64804C32.1298 2.44558 27.9024 -0.738494 24.0055 0.916703L25.9601 5.51879ZM22.741 6.88609L25.9601 5.51879L24.0055 0.916703L20.7863 2.284L22.741 6.88609ZM17.85 2.8064L19.5986 5.83504L23.9287 3.33504L22.1801 0.306397L17.85 2.8064Z" fill="#000000" mask="url(#path-1-inside-1_81_551)"/>
<circle cx="17.4439" cy="17.0047" r="4.70707" stroke="#000000" stroke-width="2"/>
</svg>
