<svg width="31" height="29" viewBox="0 0 31 29" fill="none" xmlns="http://www.w3.org/2000/svg">
<path d="M29.4884 13.9919L16.6541 1.16427L15.7939 0.304001C15.5979 0.109283 15.3328 0 15.0565 0C14.7802 0 14.5151 0.109283 14.3191 0.304001L0.62458 13.9919C0.423732 14.192 0.264999 14.4303 0.15775 14.6927C0.0505008 14.9551 -0.00309108 15.2363 0.000137675 15.5198C0.0134237 16.689 0.986624 17.6223 2.15579 17.6223H3.56743V28.4404H26.5456V17.6223H27.9871C28.5551 17.6223 29.0899 17.3998 29.4918 16.9979C29.6896 16.8006 29.8464 16.5661 29.9531 16.3078C30.0597 16.0495 30.114 15.7726 30.1129 15.4932C30.1129 14.9286 29.8903 14.3938 29.4884 13.9919ZM16.9165 26.049H13.1965V19.2731H16.9165V26.049ZM24.1541 15.2308V26.049H19.0423V18.4759C19.0423 17.7419 18.4478 17.1473 17.7137 17.1473H12.3993C11.6653 17.1473 11.0707 17.7419 11.0707 18.4759V26.049H5.95891V15.2308H2.77027L15.0598 2.95124L15.8271 3.71851L27.3461 15.2308H24.1541Z" fill="#000000"/>
</svg>
