<svg width="25" height="33" viewBox="0 0 25 33" fill="none" xmlns="http://www.w3.org/2000/svg">
<path d="M23.8243 0.44043H1.13449C0.506974 0.44043 0 0.947404 0 1.57492V31.0716C0 31.6991 0.506974 32.2061 1.13449 32.2061H23.8243C24.4518 32.2061 24.9587 31.6991 24.9587 31.0716V1.57492C24.9587 0.947404 24.4518 0.44043 23.8243 0.44043ZM2.5526 2.99303H22.4061V10.3672H2.5526V2.99303ZM22.4061 20.0103H2.5526V12.6362H22.4061V20.0103ZM22.4061 29.6535H2.5526V22.2793H22.4061V29.6535ZM11.9121 5.54563H5.38882C5.23283 5.54563 5.1052 5.67326 5.1052 5.82925V7.53098C5.1052 7.68697 5.23283 7.8146 5.38882 7.8146H11.9121C12.0681 7.8146 12.1957 7.68697 12.1957 7.53098V5.82925C12.1957 5.67326 12.0681 5.54563 11.9121 5.54563ZM5.38882 17.4578H11.9121C12.0681 17.4578 12.1957 17.3301 12.1957 17.1741V15.4724C12.1957 15.3164 12.0681 15.1888 11.9121 15.1888H5.38882C5.23283 15.1888 5.1052 15.3164 5.1052 15.4724V17.1741C5.1052 17.3301 5.23283 17.4578 5.38882 17.4578ZM17.0173 26.1082C17.0173 26.4843 17.1667 26.845 17.4327 27.111C17.6986 27.3769 18.0593 27.5263 18.4354 27.5263C18.8115 27.5263 19.1722 27.3769 19.4382 27.111C19.7041 26.845 19.8535 26.4843 19.8535 26.1082C19.8535 25.7321 19.7041 25.3714 19.4382 25.1055C19.1722 24.8395 18.8115 24.6901 18.4354 24.6901C18.0593 24.6901 17.6986 24.8395 17.4327 25.1055C17.1667 25.3714 17.0173 25.7321 17.0173 26.1082Z" fill="#000000"/>
</svg>
