<svg width="28" height="25" viewBox="0 0 28 25" fill="none" xmlns="http://www.w3.org/2000/svg">
<path id="cama vector" d="M27.3007 12.1778C27.2987 11.713 27.251 11.2466 27.1961 10.7838C27.1346 10.2623 26.8771 9.80427 26.5462 9.40463C26.3333 9.1476 26.3063 8.8977 26.3181 8.59789C26.3394 8.06308 26.3266 7.52666 26.3273 6.99121C26.3289 5.77218 26.3279 4.55283 26.3333 3.33381C26.335 2.95458 26.2691 2.58994 26.1297 2.23633C26.1121 2.18868 26.0948 2.14136 26.0772 2.09371C25.9358 1.88433 25.8096 1.66328 25.6485 1.4688C25.5189 1.31225 25.1934 1.04939 25.1934 1.04939L24.7289 0.765781C24.6135 0.724941 24.3827 0.643586 24.3827 0.643586L23.9957 0.54246C23.9581 0.539867 23.9209 0.537598 23.8833 0.535005C23.6871 0.547322 3.67849 0.5 3.67849 0.5L3.65988 0.503565C3.38954 0.58881 3.11006 0.653958 2.85122 0.76416C2.45839 0.931732 2.13695 1.19589 1.88149 1.53039C1.8551 1.56831 1.82871 1.60623 1.80232 1.64415C1.79183 1.6448 1.78168 1.64577 1.77153 1.64707C1.51742 2.03602 1.32828 2.45316 1.27279 2.9092C1.23862 3.1886 1.26298 3.47512 1.2667 3.75841C1.27042 4.05336 1.287 4.34799 1.28802 4.64294C1.29208 5.9793 1.29208 7.31566 1.29445 8.65201C1.29445 8.69869 0.957446 9.5803 0.677289 10.3054C0.432997 10.9364 0.308821 11.6048 0.308821 12.2786C0.308821 12.2822 0.308821 12.2854 0.308821 12.289C0.308482 14.7494 0.307806 17.2095 0.307129 19.6699C0.307129 19.8352 0.307129 20.0009 0.307467 20.1662C0.317618 20.1794 0.328107 20.1927 0.338258 20.2057C0.37074 20.5331 0.557173 20.794 0.730749 21.0604C0.796051 21.1236 0.897219 21.2212 0.962521 21.2844C1.14083 21.3936 1.31915 21.5032 1.49746 21.6124C1.54889 21.625 1.60032 21.6377 1.65175 21.6503C1.691 21.6604 1.73059 21.6704 1.76983 21.6801C1.79487 21.6824 1.81991 21.6847 1.84461 21.6869C1.92176 21.6993 1.9989 21.7119 2.07605 21.7242C2.12003 21.7223 2.16402 21.7203 2.22391 21.7177V22.8642C2.22797 22.8881 2.23203 22.9118 2.23609 22.9358C2.30207 23.127 2.36805 23.3182 2.43402 23.5095L2.49121 23.6038C2.67595 23.8005 2.86035 23.997 3.04509 24.1937L3.11209 24.2407C3.24303 24.2984 3.37397 24.3561 3.50492 24.4138C3.52928 24.4167 3.55364 24.4196 3.578 24.4225C3.70759 24.4472 3.83718 24.4721 3.96677 24.4968C4.71284 24.4974 5.45891 24.4984 6.20498 24.499L6.66142 24.4196C6.72808 24.3956 6.79473 24.3713 6.86105 24.3473L6.93312 24.3178C6.97271 24.2997 7.0123 24.2815 7.05188 24.2634C7.26708 24.0673 7.46637 23.8855 7.68156 23.6897C7.69611 23.6641 7.71066 23.6385 7.72521 23.6129C7.97931 23.2505 8.00401 22.8356 8.01789 22.4198C8.02499 22.2094 8.02025 21.9987 8.02093 21.7881L8.06356 21.743C8.13428 21.7365 8.205 21.7265 8.27571 21.7265C11.9976 21.7245 15.7195 21.7236 19.4411 21.7232C19.4901 21.7232 19.5392 21.7313 19.6014 21.7369C19.6014 21.9945 19.5954 22.2399 19.6031 22.4849C19.6099 22.6972 19.5991 22.9173 19.6539 23.1196C19.8627 23.8894 20.5431 24.4676 21.4113 24.4861C22.2234 24.5032 23.0418 24.5182 23.8475 24.4387C24.47 24.3775 24.9468 23.9856 25.1867 23.4265C25.319 23.1183 25.3382 22.7614 25.3795 22.423C25.4076 22.1935 25.3849 21.9586 25.3849 21.7239C25.8674 21.6899 26.2867 21.5417 26.6565 21.2704C26.9126 21.0283 27.1173 20.7551 27.2198 20.4199C27.23 20.3866 27.232 20.3506 27.2381 20.3159C27.2476 20.3029 27.2574 20.2903 27.2669 20.2773C27.2797 19.9357 27.3034 19.5941 27.3037 19.2528C27.3071 16.8945 27.3112 14.5361 27.3007 12.1781V12.1778ZM3.16622 4.03618C3.16893 3.04307 4.01482 2.24216 5.0512 2.25059C9.45691 2.28624 20.2893 2.37375 23.1071 2.38964C23.8491 2.39385 24.448 2.97144 24.447 3.68256C24.4453 4.77583 24.4413 7.87509 24.4413 7.87509L22.604 7.87055C22.5614 7.83198 22.5336 7.80735 22.491 7.76878C22.4849 7.67414 22.4768 7.57949 22.4761 7.48485C22.4687 6.65995 22.4639 5.83539 22.4568 5.01049C22.4534 4.63872 22.0708 4.23876 21.6668 4.19792C21.4384 4.1749 21.2076 4.16972 20.9779 4.16939C19.7666 4.16745 17.0435 4.17393 15.6501 4.1775C15.1751 4.17879 14.7897 4.5457 14.7856 5.00077L14.7593 7.87477C14.7593 7.87477 13.2722 7.88255 12.7968 7.87801L12.7978 5.03253C12.7978 4.54473 12.3837 4.15027 11.8744 4.15351C11.2197 4.15805 7.54453 4.17102 5.93667 4.17685C5.51812 4.17847 5.17842 4.50032 5.17233 4.90126C5.15845 5.79228 5.13748 7.26218 5.13748 7.85337C5.05525 7.8618 3.1537 7.87444 3.1537 7.87444C3.15573 7.74998 3.16216 5.63864 3.16656 4.03553L3.16622 4.03618ZM20.7478 5.86553V7.87509H16.4845V5.86553H20.7478ZM11.1385 5.86553V7.87509H6.87526V5.86553H11.1385ZM5.89945 23.1089H4.33253C4.03647 23.1089 3.79658 22.8791 3.79658 22.5955V22.0668C3.79658 21.7832 4.03647 21.5534 4.33253 21.5534H5.89945C6.19551 21.5534 6.4354 21.7832 6.4354 22.0668V22.5955C6.4354 22.8791 6.19551 23.1089 5.89945 23.1089ZM23.4154 22.9468H21.7006C21.548 22.9468 21.4245 22.8285 21.4245 22.6823V21.85C21.4245 21.7038 21.548 21.5855 21.7006 21.5855H23.4154C23.568 21.5855 23.6915 21.7038 23.6915 21.85V22.6823C23.6915 22.8285 23.568 22.9468 23.4154 22.9468ZM25.4848 18.5549C25.4848 19.1546 24.9772 19.6407 24.3513 19.6407H3.3733C2.74734 19.6407 2.23981 19.1546 2.23981 18.5549C2.23981 17.9553 2.74734 17.4691 3.3733 17.4691H24.3513C24.9772 17.4691 25.4848 17.9553 25.4848 18.5549ZM25.4848 14.2198C25.4848 15.173 24.6781 15.9457 23.683 15.9457H4.04155C3.04645 15.9457 2.23981 15.173 2.23981 14.2198V11.6751C2.23981 10.7219 3.04645 9.94915 4.04155 9.94915H23.6834C24.6785 9.94915 25.4851 10.7219 25.4851 11.6751V14.2198H25.4848Z" fill="black"/>
</svg>
