<svg width="32" height="34" viewBox="0 0 32 34" fill="none" xmlns="http://www.w3.org/2000/svg">
<path d="M15.6504 0.491699C9.51252 0.491699 4.53687 5.43443 4.53687 11.5317C4.53687 17.6289 9.51252 22.5717 15.6504 22.5717C21.7882 22.5717 26.7639 17.6289 26.7639 11.5317C26.7639 5.43443 21.7889 0.491699 15.6504 0.491699ZM15.6504 19.1966C11.3887 19.1966 7.93442 15.7651 7.93442 11.5317C7.93442 7.29821 11.3887 3.86677 15.6504 3.86677C19.912 3.86677 23.3663 7.29821 23.3663 11.5317C23.3663 15.7651 19.912 19.1966 15.6504 19.1966Z" fill="#000000"/>
<path d="M29.7198 12.2002C28.9146 12.2002 28.2387 12.801 28.1496 13.5959C27.4486 19.8301 22.1109 24.6937 15.6512 24.6937C9.1916 24.6937 3.8532 19.8309 3.15215 13.5959C3.06308 12.801 2.38644 12.2002 1.58195 12.2002C0.642412 12.2002 -0.0931255 13.0094 0.00959109 13.937C0.398909 17.4562 1.96695 20.7149 4.52338 23.2544C7.115 25.8289 10.4522 27.3952 14.0509 27.7534V29.3603H10.3516C9.83375 29.3603 9.41355 29.7777 9.41355 30.2922V32.1153C9.41355 32.6297 9.83375 33.0471 10.3516 33.0471H20.9509C21.4687 33.0471 21.8889 32.6297 21.8889 32.1153V30.2922C21.8889 29.7777 21.4687 29.3603 20.9509 29.3603H17.2516V27.7534C20.8503 27.3944 24.1875 25.8289 26.7791 23.2544C29.3355 20.7149 30.9043 17.4555 31.2929 13.937C31.3956 13.0094 30.6594 12.2002 29.7206 12.2002H29.7198Z" fill="#000000"/>
</svg>
